<svg xmlns="http://www.w3.org/2000/svg" viewBox="0 0 500 500"><g id="freepik--background-simple--inject-96"><g style="opacity:0.9"><path d="M360.35,347.56c-56.37,79-151.2,6.45-173.65-56.73-8.91-25.09-7.17-38.71-26.95-56.26-14.37-12.75-36.41-9.47-49.9-25.14-29.58-34.34-18.07-98.86,7.74-128.91,26.79-31.17,65-43.47,93.14-19.84,20.59,17.28,22,47.89,34.31,57.83,25.32,20.4,41.78,7.86,68.57,12.08C412,146.08,411.54,275.85,360.35,347.56Z" style="fill:#22C55E"></path></g><g style="opacity:0.9"><path d="M360.35,347.56c-56.37,79-151.2,6.45-173.65-56.73-8.91-25.09-7.17-38.71-26.95-56.26-14.37-12.75-36.41-9.47-49.9-25.14-29.58-34.34-18.07-98.86,7.74-128.91,26.79-31.17,65-43.47,93.14-19.84,20.59,17.28,22,47.89,34.31,57.83,25.32,20.4,41.78,7.86,68.57,12.08C412,146.08,411.54,275.85,360.35,347.56Z" style="fill:#fff"></path></g></g><g id="freepik--landing-page--inject-96"><rect x="43" y="92.66" width="414" height="261.39" style="fill:#22C55E"></rect><rect x="43" y="92.66" width="414" height="261.39" style="fill:#fff;opacity:0.6000000000000001"></rect><rect x="45.67" y="89.77" width="408.67" height="261.7" style="fill:#22C55E"></rect><rect x="45.67" y="89.77" width="408.67" height="261.7" style="fill:#fff;opacity:0.8"></rect><path d="M338,338.74c-1.77,0-3.57,0-5.39-.11-36-1.5-59.19-16.59-83.79-32.56-10.61-6.89-21.58-14-34.07-20.43-21.35-11-36.28-5.91-52.09-.56-10.41,3.52-21.16,7.16-34.26,6.32-15.07-1-26.29-6.53-33.34-16.54-10.9-15.47-9.6-39-4.76-55.88,9.59-33.39,32.32-59.24,65.73-74.74,31.89-14.81,72.28-19.82,116.78-14.49,58.47,7,110,35.51,134.36,74.4,16.25,25.91,19.58,54.93,9.62,83.93C405.67,320.47,377.11,338.74,338,338.74ZM189.92,278.63c7.53,0,15.68,1.75,25.06,6.57,12.51,6.42,23.49,13.55,34.11,20.45,24.54,15.93,47.72,31,83.54,32.48,41.64,1.74,72.14-16.57,83.69-50.21,9.91-28.86,6.6-57.73-9.58-83.5-24.32-38.77-75.67-67.19-134-74.17-93.29-11.17-163,22.88-182,88.87-4.81,16.76-6.11,40.13,4.69,55.45,7,9.89,18,15.38,33,16.33,13,.83,23.7-2.79,34.06-6.3C171.48,281.57,180.18,278.63,189.92,278.63Z" style="fill:#fff;opacity:0.30000000000000004"></path><path d="M417.91,169.91c26,39.68,20.93,98.42-29.05,132.82-54.48,37.5-106.36,27.75-132.9-11.32s-14.86-88.83,26.82-124.53S390.4,127.9,417.91,169.91Z" style="fill:#fff"></path><g style="opacity:0.5"><rect x="71.02" y="104.97" width="23.97" height="3.2" rx="1.45" style="fill:#22C55E"></rect><rect x="118.95" y="104.97" width="23.97" height="3.2" rx="1.45" style="fill:#22C55E"></rect><rect x="166.89" y="104.97" width="23.97" height="3.2" rx="1.45" style="fill:#22C55E"></rect><rect x="214.83" y="104.97" width="23.97" height="3.2" rx="1.45" style="fill:#22C55E"></rect></g><rect x="390.78" y="104.97" width="43.54" height="5.82" rx="2.63" style="fill:#22C55E"></rect><rect x="71.02" y="151.86" width="124.16" height="12.15" rx="6.07" style="fill:#fff"></rect><rect x="71.02" y="176.21" width="153.76" height="25.39" rx="5.42" style="fill:#fff"></rect><rect x="71.02" y="211.94" width="108.64" height="25.39" rx="5.42" style="fill:#fff"></rect><path d="M175.57,254.7H73.26A2.24,2.24,0,0,1,71,252.45h0a2.24,2.24,0,0,1,2.24-2.24H175.57a2.24,2.24,0,0,1,2.24,2.24h0A2.24,2.24,0,0,1,175.57,254.7Z" style="fill:#22C55E;opacity:0.30000000000000004"></path><path d="M144.23,263.36h-71A2.24,2.24,0,0,1,71,261.12h0a2.24,2.24,0,0,1,2.24-2.24h71a2.24,2.24,0,0,1,2.24,2.24h0A2.24,2.24,0,0,1,144.23,263.36Z" style="fill:#22C55E;opacity:0.30000000000000004"></path><rect x="71.02" y="284.91" width="100.64" height="30.38" rx="15.19" style="fill:#22C55E;opacity:0.1"></rect><path d="M155.26,312.32h-68A14.71,14.71,0,0,1,72.5,297.61h0a14.71,14.71,0,0,1,14.71-14.7h68.05A14.71,14.71,0,0,1,170,297.61h0A14.71,14.71,0,0,1,155.26,312.32Z" style="fill:#22C55E"></path><path d="M138.17,301.51H104.3a3.9,3.9,0,0,1-3.9-3.9h0a3.9,3.9,0,0,1,3.9-3.89h33.87a3.89,3.89,0,0,1,3.9,3.89h0A3.89,3.89,0,0,1,138.17,301.51Z" style="fill:#fff;opacity:0.4"></path><path d="M291.9,133a16,16,0,0,1-28,14.1,15.74,15.74,0,0,0,8.12,0,16,16,0,0,0,8.42-25.51A16,16,0,0,1,291.9,133Z" style="fill:#fff"></path><circle cx="437.17" cy="179.89" r="0.89" style="fill:#fff;opacity:0.6000000000000001"></circle><path d="M371.42,132.18a.89.89,0,1,1-.89-.89A.89.89,0,0,1,371.42,132.18Z" style="fill:#fff;opacity:0.6000000000000001"></path><circle cx="302.5" cy="145.57" r="0.89" style="fill:#fff;opacity:0.6000000000000001"></circle><circle cx="341.26" cy="171.81" r="0.89" style="fill:#22C55E;opacity:0.6000000000000001"></circle><path d="M413.44,218.33a.89.89,0,1,1-.89-.89A.89.89,0,0,1,413.44,218.33Z" style="fill:#22C55E;opacity:0.6000000000000001"></path><path d="M328.55,127.94c-2.63.89-3.35,1.61-4.24,4.24-.89-2.63-1.61-3.35-4.24-4.24,2.63-.89,3.35-1.61,4.24-4.24C325.2,126.33,325.92,127.05,328.55,127.94Z" style="fill:#fff;opacity:0.7000000000000001"></path><circle cx="418.97" cy="144.69" r="2.71" style="fill:#fff;opacity:0.7000000000000001"></circle><path d="M250.92,157.93a3.41,3.41,0,0,0-2.71,2.71,3.41,3.41,0,0,0-2.71-2.71,3.41,3.41,0,0,0,2.71-2.71A3.41,3.41,0,0,0,250.92,157.93Z" style="fill:#fff;opacity:0.7000000000000001"></path><path d="M313.68,172.39c-2.08.7-2.64,1.27-3.35,3.35-.7-2.08-1.27-2.65-3.35-3.35,2.08-.7,2.65-1.27,3.35-3.35C311,171.12,311.6,171.69,313.68,172.39Z" style="fill:#22C55E;opacity:0.7000000000000001"></path><circle cx="346.52" cy="145.57" r="1.57" style="fill:#22C55E;opacity:0.7000000000000001"></circle><path d="M382.11,241.7c.4-1.47,7.13-.92,15,1.23s14,5.1,13.58,6.57l8.31,2.27c.64-2.32-9-7-21.47-10.38s-23.13-4.29-23.76-2Z" style="fill:#22C55E"></path><path d="M385.79,238.82a108.31,108.31,0,0,1,11.77,2.57A112.74,112.74,0,0,1,409,245.15a13.31,13.31,0,0,1,.07,2.45,48.58,48.58,0,0,0-11.95-4.67c-5.22-1.42-9.94-2.15-12.65-2.05A12.14,12.14,0,0,1,385.79,238.82Z" style="opacity:0.2"></path><circle cx="396.42" cy="245.6" r="11.37" transform="translate(-64.77 176.49) rotate(-23.26)" style="fill:#22C55E"></circle><circle cx="396.42" cy="245.6" r="11.37" style="fill:#fff;opacity:0.4"></circle><path d="M387.49,242.32c.09,2.16,1.74,3.2,3.68,2.34a6.15,6.15,0,0,0,3.33-5.48c-.09-2.16-1.74-3.21-3.67-2.34A6.14,6.14,0,0,0,387.49,242.32Z" style="fill:#fff;opacity:0.1"></path><path d="M398.36,240.85a1.49,1.49,0,1,0,.88-1.9A1.49,1.49,0,0,0,398.36,240.85Z" style="fill:#fff;opacity:0.1"></path><path d="M401.09,253a1.26,1.26,0,0,0,1.62.76,1.27,1.27,0,0,0-.87-2.38A1.25,1.25,0,0,0,401.09,253Z" style="fill:#fff;opacity:0.1"></path><path d="M395.4,249.32a58.2,58.2,0,0,0,10.84,2,10.55,10.55,0,0,1-1.31,1.79c-3-.54-6.43-1.3-9.95-2.26s-6.83-2-9.73-3.11a10.13,10.13,0,0,1-.21-2.2A59.42,59.42,0,0,0,395.4,249.32Z" style="fill:#22C55E;opacity:0.5"></path><path d="M382.11,241.7c-.41,1.47,5.67,4.41,13.57,6.57s14.64,2.7,15,1.23l8.31,2.27c-.63,2.33-11.27,1.45-23.77-2s-22.1-8.05-21.46-10.38Z" style="fill:#22C55E"></path><path d="M223.34,283l-10.9,18,17.33-4.85,17.33-4.84-21.14-9A2.06,2.06,0,0,0,223.34,283Z" style="fill:#22C55E"></path><path d="M223.34,283l-10.9,18,17.33-4.85,17.33-4.84-21.14-9A2.06,2.06,0,0,0,223.34,283Z" style="fill:#fff;opacity:0.5"></path><path d="M255,314.46l-33,9.23a1.71,1.71,0,0,1-2-1.07l-7.87-20.73A1.37,1.37,0,0,1,213,300l33-9.22a1.7,1.7,0,0,1,2,1.07l7.87,20.73A1.36,1.36,0,0,1,255,314.46Z" style="fill:#22C55E"></path><path d="M255,314.46l-33,9.23a1.71,1.71,0,0,1-2-1.07l-7.87-20.73A1.37,1.37,0,0,1,213,300l33-9.22a1.7,1.7,0,0,1,2,1.07l7.87,20.73A1.36,1.36,0,0,1,255,314.46Z" style="fill:#fff;opacity:0.30000000000000004"></path><path d="M234.72,310.5l-19.95-9.62a.72.72,0,0,1,0-1.35l14.73-4.12,14.74-4.12a.8.8,0,0,1,.92,1.1l-9.52,17.86A.68.68,0,0,1,234.72,310.5Z" style="fill:#22C55E;opacity:0.2"></path><path d="M235.17,305.86a2.59,2.59,0,0,0-3.43,1L222,323.69l33-9.23Z" style="fill:#263238"></path><path d="M234.19,305.71l-12.21,18,16.5-4.61L255,314.46,236.69,305A2,2,0,0,0,234.19,305.71Z" style="fill:#22C55E"></path><path d="M236.69,305a2,2,0,0,0-2.5.7l-12.21,18,33-9.23Z" style="fill:#fff;opacity:0.12"></path></g><g id="freepik--Character--inject-96"><path d="M272.22,174.05c3.33-3.59,8.34,4.82,8.34,4.82s3.28,1.2.21,3.83C271.22,178.41,272.22,174.05,272.22,174.05Z" style="fill:#263238"></path><path d="M301.53,292.9c-7.6-12.93,48-24.16,48.61-35.23-8.48-16.63-23.07-36-23.07-36l-48.34,21.27S287.36,286.65,301.53,292.9Z"></path><path d="M315.3,272.78l15.21-24.12s51,37.34,55,45.38,5.5,73.43,5.5,73.43l-9.59-.2s-12.22-33-12.92-62.62C339.3,292,315.3,272.78,315.3,272.78Z" style="fill:#263238"></path><path d="M338.62,279.38A19.76,19.76,0,0,0,340.38,290c-3.68-2.23-7.05-4.4-10.06-6.4l-.49-.91Z"></path><path d="M400.57,380.61s-11.12-8.27-11.44-13.86l-8,.55-1.65,8.58,4.26,1.5.87-1,.86,1.64c3.45,1.21,12.67,4.31,15.11,4.29A1.7,1.7,0,0,0,400.57,380.61Z" style="fill:#263238"></path><polygon points="391.51 369.73 380.28 369.07 379.45 364.15 392.06 364.06 391.51 369.73" style="fill:#22C55E"></polygon><path d="M302.23,271.45l26.6-10.26s18.55,60.39,17,69.25-39.47,62.17-39.47,62.17l-7.56-5.89s9.92-33.78,27-57.93C310,301.22,302.23,271.45,302.23,271.45Z" style="fill:#263238"></path><path d="M306.18,408.86s-4-13.28-.89-17.95l-6.74-4.32-6.45,5.89,2.52,3.75,1.31-.31-.29,1.83c2,3,7.58,11,9.55,12.48A1.71,1.71,0,0,0,306.18,408.86Z" style="fill:#263238"></path><polygon points="305.41 394.72 296.8 387.49 299.07 383.04 309.24 390.51 305.41 394.72" style="fill:#22C55E"></polygon><path d="M310.61,198.49c2.28,1.44,4.77,3,7.18,4.46s4.88,2.9,7.32,4.28,4.9,2.65,7.32,3.79a40.65,40.65,0,0,0,6.83,2.57l-2.5.07a3.79,3.79,0,0,0,1.41-.42,17.41,17.41,0,0,0,2.34-1.24c1.63-1,3.37-2.22,5.06-3.53s3.43-2.67,5.14-4.07l5.16-4.23.07-.06a3.67,3.67,0,0,1,5.53,4.65,71.08,71.08,0,0,1-3.87,6c-1.39,1.94-2.86,3.83-4.45,5.67a52.54,52.54,0,0,1-5.31,5.36,31.66,31.66,0,0,1-3.36,2.54,16.7,16.7,0,0,1-4.87,2.21,5.14,5.14,0,0,1-2,.13l-.48-.07a44.91,44.91,0,0,1-10.06-2.72c-1.52-.58-3-1.2-4.45-1.83s-2.85-1.33-4.25-2c-2.79-1.39-5.48-2.89-8.13-4.44s-5.19-3.17-7.82-5a7.32,7.32,0,0,1,8.08-12.19Z" style="fill:#263238"></path><path d="M360.15,204c3.63.26,6.55-5.83,6.55-5.83l2.41-3.41a2.89,2.89,0,0,0-.34-3.73l-2.53-2.5a2.9,2.9,0,0,0-4.14.08l-2.84,3a5.31,5.31,0,0,0-1.13,1.88l-1,2.85a6.66,6.66,0,0,0,1.68,6.93l.24.23A1.66,1.66,0,0,0,360.15,204Z" style="fill:#ffb573"></path><path d="M353.49,201.38s.87-2,1.57-3.36c2.25-.39,7.85,4.32,8.58,6.31-.49,1.07-3.22,3.21-3.22,3.21C358.71,205.62,354.82,202.73,353.49,201.38Z" style="fill:#e0e0e0"></path><path d="M271.45,217c8.13-6.18,20.72-13.36,30-16.78A11.77,11.77,0,0,1,314.63,204c9.13,11.66,16.58,28.71,28.41,51.68-15.36,17.7-39.47,22.8-39.47,22.8-3.31-4.1-6.41-13.76-9.93-22.24-6.3-7.22-15.07-14.58-23.56-24.09A10.22,10.22,0,0,1,271.45,217Z" style="fill:#fff"></path><path d="M329.83,262.28a.49.49,0,0,1-.46-.32c-8.21-20.66-30.74-45.24-35.33-48.42a.5.5,0,0,1,.56-.82c4.65,3.21,27.42,28,35.7,48.87a.51.51,0,0,1-.28.65A.43.43,0,0,1,329.83,262.28Z" style="fill:#e6e6e6"></path><path d="M278,212.44c17.12,8.87,9.38,62.18,36.17,85.56-15.78-.09-26.79-11.35-26.79-11.35s-10-43.39-19.95-56C261.37,223,269.94,216.51,278,212.44Z" style="fill:#263238"></path><path d="M293.94,203.7c8.83,3.35,57,46.58,58.06,71,4.81-17.4-3.29-32-3.29-32s-16.25-18.23-23.35-27.9-15.48-19-22.1-16.91C294.79,200.48,293.94,203.7,293.94,203.7Z" style="fill:#263238"></path><path d="M270.4,195.21l14.73,2.39c.71,4.19,2.38,8,8.81,6.1,2.49,1.05,1.25,4.62-.52,7-4,1.72-10.07,3.55-14.19,1.73C278.51,209.48,274.32,199.73,270.4,195.21Z" style="fill:#ffb573"></path><path d="M294.6,207.2a8.8,8.8,0,0,1-.25,4.33c-1.53.88-4.75.45-4.75.45s-.54-2.91.38-4.1C293.51,206.84,294.6,207.2,294.6,207.2Z" style="fill:#22C55E"></path><path d="M291.82,211.42a4.25,4.25,0,0,1,1.31-2.1c8.16,7.54,27.94,12.12,32.65,15.67,2.26,1.56,6.33,5.6,6.28,10.72-4.41-3.72-10-2.43-12.6-4.47C312.16,224.21,295.85,218.88,291.82,211.42Z" style="fill:#22C55E"></path><path d="M276.54,196.21l8.59,1.39a14.54,14.54,0,0,0,.73,2.87c-2.16,1.47-6.62,1-8-1A9.89,9.89,0,0,1,276.54,196.21Z" style="opacity:0.2"></path><path d="M264.83,193.63c5.64,4.66,8.7,7.68,13.94,7.53,7.88-.24,11.55-9.17,7.41-15.44-3.73-5.65-12.32-12.33-19.29-9.05A10.09,10.09,0,0,0,264.83,193.63Z" style="fill:#ffb573"></path><path d="M267.5,195.85c3.39-3,1.51-5.89-.33-5.53,1.61-2.19-1.72-5.86-4.37-5.31,4.24-3,12.49-6.54,11.15-12.57-1.25-5.66-11.91-5.31-11.65,1.85,1.79-.61,2.21,2.13-3,4.36-8.4,3.6-7.58,9.77-3.21,10.21C252.85,190.85,259.69,197.59,267.5,195.85Z" style="fill:#263238"></path><path d="M271.88,178.53c3.15-4.41,2.79-8,2.35-9.95C276.58,172.45,275.12,177.06,271.88,178.53Z" style="fill:#263238"></path><path d="M250.92,188.17c5.32,1.06,8.41-.72,10.05-1.94C258.4,190,253.6,190.52,250.92,188.17Z" style="fill:#263238"></path><path d="M266.06,198.62a6.27,6.27,0,0,0,4.75.89c2.18-.47,2.24-2.68.78-4.2-1.32-1.36-4-2.76-5.81-1.48A2.87,2.87,0,0,0,266.06,198.62Z" style="fill:#ffb573"></path><path d="M272.55,187c.43.4,1,.5,1.26.22s.13-.85-.31-1.26-1-.5-1.26-.22S272.11,186.6,272.55,187Z" style="fill:#263238"></path><path d="M277.69,182.12c.44.41,1,.51,1.27.22s.12-.85-.31-1.25-1-.51-1.27-.22S277.26,181.72,277.69,182.12Z" style="fill:#263238"></path><path d="M277.16,183.68a20.89,20.89,0,0,0,5.64,1.38,3.46,3.46,0,0,1-1.54,2.46Z" style="fill:#ed893e"></path><path d="M270.07,186.85a.3.3,0,0,1-.14.1.35.35,0,0,1-.45-.21,3.52,3.52,0,0,1,.31-3.19.35.35,0,0,1,.56.42h0a2.83,2.83,0,0,0-.22,2.53A.34.34,0,0,1,270.07,186.85Z" style="fill:#263238"></path><path d="M278.62,178.23a.36.36,0,0,1-.27.19,2.72,2.72,0,0,0-2.16,1.29.35.35,0,0,1-.47.14.35.35,0,0,1-.15-.47,3.41,3.41,0,0,1,2.71-1.66.35.35,0,0,1,.34.51Z" style="fill:#263238"></path><path d="M279.05,211.75s-.21-.62-.2-.62c-.47,0-2.21,1.58-1.35,2.46,2.94,2.92,10.41,2.71,13.43,1.82-.95-.89-1.39-5.78-1-7.52C287.52,209.48,284.36,210.7,279.05,211.75Z" style="fill:#e6e6e6"></path><path d="M290,207.88a11.45,11.45,0,0,1,8.44,2.35c.78-1.26-.31-3.77-.79-4.54-1.5-2.59-3.12-3.89-5.85-1.54C291.63,205.24,292.51,206.22,290,207.88Z" style="fill:#e6e6e6"></path><path d="M279.21,228.82,275,234.6c-1.39,2-2.74,3.92-4.05,5.87s-2.54,3.93-3.64,5.84c-.55,1-1,1.91-1.46,2.81a18.32,18.32,0,0,0-1,2.37,13.87,13.87,0,0,0-.3,5,43.34,43.34,0,0,0,1.16,6.45,131.92,131.92,0,0,0,4.34,13.54l.06.18a3.66,3.66,0,0,1-6.24,3.6,58.5,58.5,0,0,1-4.7-6.48,64.24,64.24,0,0,1-3.88-7.08,44.14,44.14,0,0,1-2.87-8,24.32,24.32,0,0,1-.58-9.92,29.09,29.09,0,0,1,1.29-4.78c.52-1.43,1.08-2.76,1.67-4a76.72,76.72,0,0,1,3.83-7.21c1.35-2.29,2.79-4.49,4.27-6.64s3-4.21,4.74-6.34a7.32,7.32,0,0,1,11.61,8.89Z" style="fill:#263238"></path><path d="M263.36,278.51a1.77,1.77,0,0,1,.9-.74l3.24-1.22a1.76,1.76,0,0,1,1.82.38l2.11,2a19.79,19.79,0,0,1,4.66,7l.35.88a2.91,2.91,0,0,1-1.71,3.77l-3.34,1.22a2.89,2.89,0,0,1-3.52-1.3l-2.05-3.64S261.57,281.68,263.36,278.51Z" style="fill:#ffb573"></path><path d="M269.55,275.42a13.41,13.41,0,0,1,2.82,2.93c-.91,2.09-7.93,4.15-10,3.67-.63-1-.9-4.46-.9-4.46C264,277.2,267.69,275.79,269.55,275.42Z" style="fill:#e0e0e0"></path><path d="M280.67,190.94a7.55,7.55,0,0,0,.8-.8.18.18,0,0,0,0-.27.21.21,0,0,0-.29,0,5.72,5.72,0,0,1-4.51,2.07.2.2,0,0,0-.22.18.21.21,0,0,0,.19.21A6.13,6.13,0,0,0,280.67,190.94Z" style="fill:#263238"></path><path d="M365.79,185.05l46.73-17.53a1.24,1.24,0,0,0,.64-1.87l-15.29-26a1.89,1.89,0,0,0-2.21-.79l-46.73,17.53a1.25,1.25,0,0,0-.64,1.87l15.29,26A1.89,1.89,0,0,0,365.79,185.05Z" style="fill:#22C55E"></path><path d="M363.37,221l46.73-17.53a2.81,2.81,0,0,0,1.57-2.22l2.81-32.82c.08-.93-.49-1.44-1.28-1.15L366.47,184.8A2.79,2.79,0,0,0,364.9,187l-2.81,32.83C362,220.76,362.59,221.28,363.37,221Z" style="fill:#22C55E"></path><path d="M366.56,188.1a2.82,2.82,0,0,1,1.58-2.21l44.69-16.78a1.11,1.11,0,0,1,1.49,1.13l-2.65,31a2.77,2.77,0,0,1-1.57,2.22l-44.7,16.77a1.1,1.1,0,0,1-1.49-1.13Z" style="opacity:0.2"></path><g style="opacity:0.30000000000000004"><circle cx="270.78" cy="187.75" r="23.54" transform="translate(-33.15 315.01) rotate(-57.46)" style="fill:#22C55E"></circle><ellipse cx="255.2" cy="187.23" rx="10.59" ry="6.79" transform="translate(46.04 424.79) rotate(-84.9)" style="fill:#fff;opacity:0.4"></ellipse><path d="M265.35,193.39c-1-.56-2.53.21-3.34,1.72s-.64,3.19.39,3.75,2.53-.22,3.35-1.73S266.39,194,265.35,193.39Z" style="fill:#fff;opacity:0.4"></path></g></g></svg>