<svg xmlns="http://www.w3.org/2000/svg" viewBox="0 0 500 500"><g id="freepik--background-simple--inject-64"><path d="M359.37,131.38c-36.62-32-86.19,0-134.35,67.34s-71.06,39-112,68.68S61.13,418.66,205.37,406.84,455.1,214.92,359.37,131.38Z" style="fill:#f0f0f0"></path></g><g id="freepik--Plant--inject-64"><path d="M336.18,330.71c-15.45-10.79-18.95-30.82-18.34-48.83.1-3-.23-6.18,1.2-8.81s4.77-4.44,7.46-3.18c2.23,1.05,3.2,3.65,4.45,5.8a17.56,17.56,0,0,0,7.05,6.73c1.91,1,4.28,1.6,6.17.56,2.6-1.43,2.9-5,2.88-8q0-8.37-.1-16.72a27.83,27.83,0,0,1,.9-8.88c.93-2.84,3-5.47,5.83-6.27s6.36.85,7,3.77a28.8,28.8,0,0,1,.09,3.72c.08,1.25.66,2.62,1.83,3s2.39-.49,3.29-1.37c3.08-3,5.18-6.91,7.13-10.77s3.86-7.83,6.66-11.12,6.67-5.9,11-6.15,8.84,2.41,9.92,6.61-1.37,8.49-4,11.9a66.87,66.87,0,0,1-13.89,13.25,5.44,5.44,0,0,0-2.33,2.49c-.65,2,1.24,4,3.21,4.63,2.23.74,4.65.51,7,.79s4.85,1.3,5.74,3.5c1.22,3.06-1.34,6.26-3.85,8.36a57.38,57.38,0,0,1-16.92,9.77c-2.2.8-4.51,1.51-6.29,3.05s-2.84,4.23-1.77,6.34,3.82,2.78,6.13,2.35,4.36-1.67,6.56-2.5c4.11-1.55,9.41-1.27,12,2.28a9.46,9.46,0,0,1,1,8.37,21.83,21.83,0,0,1-4.53,7.39A57.63,57.63,0,0,1,364,330c-9.53,3.3-18.36,4.2-27.83.73" style="fill:#22C55E"></path><path d="M396.2,226.66s-.09.1-.29.28l-.89.79c-.78.7-1.93,1.72-3.38,3.07a111.61,111.61,0,0,0-11.42,12.33c-2.23,2.77-4.54,5.91-7,9.32s-5,7.09-7.52,11a135.66,135.66,0,0,0-7.37,12.78c-1.16,2.29-2.18,4.68-3.23,7.12L352,290.8a274.85,274.85,0,0,0-10.66,28.77,134,134,0,0,0-5,24.53,97.54,97.54,0,0,0-.28,16.89c.16,2,.31,3.53.45,4.57.06.5.1.9.14,1.19l0,.41a2.09,2.09,0,0,1-.09-.4c-.05-.29-.11-.68-.19-1.18-.18-1-.37-2.58-.55-4.58a92.93,92.93,0,0,1,.1-16.94,131.81,131.81,0,0,1,4.89-24.64,268.42,268.42,0,0,1,10.63-28.84l3.18-7.42c1.05-2.43,2.08-4.84,3.25-7.14a133.92,133.92,0,0,1,7.43-12.81c2.56-4,5.14-7.62,7.57-11s4.78-6.54,7-9.3a106.31,106.31,0,0,1,11.57-12.24c1.48-1.33,2.66-2.33,3.46-3l.93-.75A2.18,2.18,0,0,1,396.2,226.66Z" style="fill:#263238"></path><path d="M358,276a6.19,6.19,0,0,1-.29-1.27c-.16-.83-.34-2-.55-3.52-.43-3-.87-7.11-1.34-11.66s-1-8.67-1.44-11.64c-.23-1.48-.43-2.67-.57-3.5a5.4,5.4,0,0,1-.17-1.3,5.53,5.53,0,0,1,.37,1.25c.22.82.47,2,.75,3.49.57,3,1.13,7.08,1.6,11.64s.87,8.56,1.18,11.67c.15,1.4.28,2.59.38,3.54A5.54,5.54,0,0,1,358,276Z" style="fill:#263238"></path><path d="M396.48,268.82A8,8,0,0,1,395,269c-1,.09-2.42.21-4.18.41-3.52.38-8.36,1.08-13.67,2.08s-10.08,2.13-13.51,3c-1.71.44-3.09.84-4,1.11a7.3,7.3,0,0,1-1.5.36,8.71,8.71,0,0,1,1.44-.57c.94-.33,2.3-.79,4-1.28,3.41-1,8.18-2.19,13.51-3.21A136.16,136.16,0,0,1,390.74,269c1.77-.15,3.2-.21,4.2-.23A7.69,7.69,0,0,1,396.48,268.82Z" style="fill:#263238"></path><path d="M341.3,318.72a2.08,2.08,0,0,1-.26-.47l-.66-1.39c-.57-1.21-1.34-3-2.26-5.19-1.86-4.4-4.23-10.56-6.75-17.4s-4.84-13-6.6-17.45c-.86-2.16-1.57-3.93-2.1-5.25l-.56-1.43a1.93,1.93,0,0,1-.16-.52,2.08,2.08,0,0,1,.26.47l.66,1.39c.56,1.21,1.34,3,2.26,5.19,1.86,4.4,4.23,10.56,6.75,17.4s4.84,13,6.6,17.45c.86,2.16,1.57,3.93,2.09,5.25.23.57.42,1,.57,1.43A1.93,1.93,0,0,1,341.3,318.72Z" style="fill:#263238"></path><path d="M392.38,302.25a2.12,2.12,0,0,1-.51.21l-1.48.5-5.47,1.77c-4.62,1.5-11,3.64-18,6s-13.41,4.46-18.06,5.86c-2.32.71-4.21,1.25-5.52,1.61l-1.51.39a2.59,2.59,0,0,1-.54.11,2.12,2.12,0,0,1,.51-.21l1.48-.5,5.47-1.77c4.62-1.5,11-3.64,18-6s13.4-4.46,18.05-5.86c2.33-.71,4.21-1.25,5.53-1.61l1.51-.39A2.59,2.59,0,0,1,392.38,302.25Z" style="fill:#263238"></path></g><g id="freepik--Padlock--inject-64"><path d="M371.54,59.68l-5.15,1.84-2.21-6.73c-4.06-12.41-17-19-28.89-14.81s-18.22,17.8-14.16,30.21l2.21,6.73-5.17,1.85a8.22,8.22,0,0,0-4.82,10.28l14.33,43.79a7.73,7.73,0,0,0,9.86,5.11l53.37-19.09a8.26,8.26,0,0,0,4.87-10.38L381.44,64.69A7.71,7.71,0,0,0,371.54,59.68Zm-40.68,7a13.19,13.19,0,0,1,7.76-16.55,12.36,12.36,0,0,1,15.83,8.11l2.2,6.73-23.59,8.44Zm30,38.86,3.66,11.18a.91.91,0,0,1-.57,1.12l-5.13,1.83a.82.82,0,0,1-1-.54L354.13,108a10,10,0,0,1-9-7,10.51,10.51,0,0,1,6.19-13.18,9.85,9.85,0,0,1,12.61,6.46A10.68,10.68,0,0,1,360.87,105.57Z" style="fill:#22C55E"></path><path d="M366.16,61.4c0,.14-9.55,3.73-21.43,8S323.16,77.1,323.11,77s9.55-3.72,21.44-8S366.11,61.27,366.16,61.4Z" style="fill:#263238"></path><path d="M377.5,63.24a1.75,1.75,0,0,1,.11.27c.08.2.17.46.29.78.26.73.62,1.74,1.07,3l3.84,11.18c1.6,4.74,3.51,10.36,5.63,16.6,1,3.13,2.18,6.39,3.28,9.82a15,15,0,0,1,.75,5.49,7.37,7.37,0,0,1-.81,2.77,7.64,7.64,0,0,1-1.89,2.23,18,18,0,0,1-5.08,2.59l-5.15,1.85-9.75,3.49-16.51,5.88-11.15,3.92-3,1-.8.26a.85.85,0,0,1-.27.07s.08,0,.25-.12l.78-.31,3-1.13,11.09-4.08,16.48-6,9.73-3.52,5.15-1.86a17.13,17.13,0,0,0,4.93-2.51,7.11,7.11,0,0,0,1.76-2.07,6.58,6.58,0,0,0,.75-2.57,14.39,14.39,0,0,0-.72-5.29c-1.08-3.4-2.22-6.69-3.25-9.82-2.08-6.25-4-11.89-5.52-16.63s-2.8-8.55-3.68-11.23c-.42-1.31-.74-2.33-1-3.07l-.24-.8A.93.93,0,0,1,377.5,63.24Z" style="fill:#263238"></path><path d="M349.34,49.45s-.53-.26-1.51-.66a13.32,13.32,0,0,0-4.37-.88A15,15,0,0,0,337,49.13a14.4,14.4,0,0,0-6.11,5.11,13.52,13.52,0,0,0-2.35,7.59,23.39,23.39,0,0,0,1,6.55c.52,1.82,1.06,3.27,1.42,4.28a11.17,11.17,0,0,1,.52,1.58,8.78,8.78,0,0,1-.71-1.51c-.41-1-1-2.42-1.58-4.25a22.74,22.74,0,0,1-1.15-6.65,13.71,13.71,0,0,1,2.4-7.88,14.63,14.63,0,0,1,6.35-5.26,14.88,14.88,0,0,1,6.65-1.14,12.59,12.59,0,0,1,4.43,1.05,8.26,8.26,0,0,1,1.08.6A1.49,1.49,0,0,1,349.34,49.45Z" style="fill:#263238"></path><path d="M349.8,88.58a3.45,3.45,0,0,1,.5-.25,9.93,9.93,0,0,1,1.55-.55,11.09,11.09,0,0,1,2.59-.44,8.78,8.78,0,0,1,3.51.53c2.56.9,4.91,3.51,6.07,7a10.08,10.08,0,0,1,0,5.74A13,13,0,0,1,360.8,106l.06-.27c1.33,3.65,2.78,7.61,4.28,11.74l.09.25-.25.09-2.29.76-5,1.67-.25.08-.08-.25c-1.37-4.14-2.87-8-4-11.79l.22.17a10,10,0,0,1-5.36-2.11,12.1,12.1,0,0,1-3.35-4,9.14,9.14,0,0,1-1.06-4.5,10.86,10.86,0,0,1,4.19-8.26,6.36,6.36,0,0,1,1.73-1,19.27,19.27,0,0,0-1.64,1.09A10.63,10.63,0,0,0,345,94.06a9.46,9.46,0,0,0,.31,8.07,11.74,11.74,0,0,0,3.27,3.84,9.52,9.52,0,0,0,5.11,2l.17,0,.05.15c1.1,3.72,2.61,7.61,4,11.77l-.33-.16,5-1.67,2.28-.77-.16.34c-1.49-4.13-2.93-8.1-4.25-11.75l0-.15.12-.12a12.74,12.74,0,0,0,3.16-5.17,9.67,9.67,0,0,0,0-5.49c-1.09-3.36-3.34-5.91-5.78-6.81a8.59,8.59,0,0,0-3.39-.57,11.46,11.46,0,0,0-2.56.35C350.51,88.29,349.81,88.63,349.8,88.58Z" style="fill:#263238"></path></g><g id="freepik--Device--inject-64"><path d="M318.89,377.32,219,376.86A21.77,21.77,0,0,1,197.35,355l1.06-250.41a21.75,21.75,0,0,1,21.86-21.66l99.88.46a21.77,21.77,0,0,1,21.66,21.85l-1.06,250.4A21.77,21.77,0,0,1,318.89,377.32Z" style="fill:#455a64"></path><path d="M320,92,300.64,92a4.81,4.81,0,0,0-4.72,4.9l0,3.51a4.8,4.8,0,0,1-4.72,4.89l-37.74-.17a4.82,4.82,0,0,1-4.69-4.94l0-3.51a4.82,4.82,0,0,0-4.68-4.94l-6.81,0-16.95-.08A15.24,15.24,0,0,0,205,106.75l-1,244.42a15.23,15.23,0,0,0,15.16,15.3l99.68.46a15.24,15.24,0,0,0,15.31-15.17l1-244.42A15.25,15.25,0,0,0,320,92Z" style="fill:#fff"></path><path d="M306.59,334.32,232.47,334c-.77,0-1.39-.84-1.38-1.86l.08-19.39c0-1,.63-1.86,1.4-1.86l74.12.34a1.68,1.68,0,0,1,1.38,1.87L308,332.47C308,333.5,307.36,334.33,306.59,334.32Z" style="fill:#22C55E"></path><text transform="matrix(0.96, 0, 0, 1, 252.59, 324.95)" style="font-size:8.298959732055664px;fill:#e8e8e3;font-family:Montserrat-Regular, Montserrat">SING UP</text><rect x="221.51" y="163.81" width="25.72" height="4.72" transform="translate(0.77 -1.08) rotate(0.26)" style="fill:#22C55E"></rect><rect x="221.51" y="163.81" width="25.72" height="4.72" transform="translate(0.77 -1.08) rotate(0.26)" style="opacity:0.1"></rect><path d="M322.65,192.83a2.3,2.3,0,0,0,.59-.14,1.58,1.58,0,0,0,1-1.35c0-1.59,0-3.91,0-6.89,0-1.49,0-3.16,0-5,0-.45,0-.92,0-1.39a1.94,1.94,0,0,0-.28-1.31,1.5,1.5,0,0,0-1.19-.61h-1.56l-14.45,0-83.64-.31a1.33,1.33,0,0,0-1.1.55,1.91,1.91,0,0,0-.26,1.31c0,1,0,2,0,3q0,3,0,6c0,1,0,2,0,3a7.89,7.89,0,0,0,0,1.4,1.35,1.35,0,0,0,.78.9,1.56,1.56,0,0,0,.62.11h5.09l22.21.12,37.6.23,25.35.2,6.89.08,1.79,0c.41,0,.61,0,.61,0l-.61,0-1.79,0h-6.89l-25.35,0-37.6-.12-22.21-.09h-5.09a2,2,0,0,1-.82-.14,1.88,1.88,0,0,1-1.08-1.25,2.83,2.83,0,0,1-.06-.8v-.74c0-1,0-2,0-3q0-3,0-6c0-1,0-2,0-3a5.6,5.6,0,0,1,0-.8,1.7,1.7,0,0,1,.33-.81,1.84,1.84,0,0,1,1.52-.77l83.64.46,14.45.1,1.56,0a1.71,1.71,0,0,1,1.4.73,2.13,2.13,0,0,1,.32,1.47c0,.47,0,.94,0,1.39,0,1.82,0,3.49,0,5,0,3-.07,5.3-.09,6.9a1.62,1.62,0,0,1-1.05,1.39A1.2,1.2,0,0,1,322.65,192.83Z" style="fill:#e0e0e0"></path><rect x="228.41" y="182.01" width="47.04" height="4.41" transform="matrix(1, 0, 0, 1, 0.85, -1.16)" style="fill:#22C55E"></rect><rect x="228.41" y="182.01" width="47.04" height="4.41" transform="matrix(1, 0, 0, 1, 0.85, -1.16)" style="fill:#fff;opacity:0.2"></rect><rect x="221.33" y="206.87" width="25.72" height="4.72" transform="translate(0.97 -1.08) rotate(0.26)" style="fill:#22C55E"></rect><rect x="221.33" y="206.87" width="25.72" height="4.72" transform="translate(0.97 -1.08) rotate(0.26)" style="opacity:0.1"></rect><path d="M322,235.89a5.17,5.17,0,0,0,.6-.11,2.05,2.05,0,0,0,1.26-1.14,2.8,2.8,0,0,0,.18-1.27c0-.48,0-1,0-1.58,0-1.16,0-2.48,0-4v-6.35a2.15,2.15,0,0,0-.29-1.32,1.94,1.94,0,0,0-1.09-.85,6.13,6.13,0,0,0-1.51-.08l-14.39,0-83.35-.31a1.85,1.85,0,0,0-1.83,1.61c0,.95,0,2,0,3q0,3,0,6c0,1,0,2,0,3a5.74,5.74,0,0,0,.06,1.4,1.9,1.9,0,0,0,.73,1,2.08,2.08,0,0,0,1.24.32H225l2.89,0,22.13.11,37.47.23,25.26.2,6.87.08,1.79,0,.6,0-.6,0-1.79,0-6.87,0-25.26,0L250,235.79l-22.13-.08h-4.35a2.51,2.51,0,0,1-1.53-.41,2.4,2.4,0,0,1-.94-1.31,6.3,6.3,0,0,1-.08-1.54c0-1,0-2,0-3q0-3,0-6c0-1,0-2,0-3a2.37,2.37,0,0,1,2.35-2.07l83.35.46,14.39.11a6.19,6.19,0,0,1,1.6.11,2.21,2.21,0,0,1,1.23,1,2.41,2.41,0,0,1,.32,1.46c0,.47,0,.93,0,1.39,0,1.81,0,3.47,0,5s0,2.82,0,4c0,.57,0,1.1,0,1.59a2.79,2.79,0,0,1-.21,1.31,2.12,2.12,0,0,1-1.35,1.14A1.88,1.88,0,0,1,322,235.89Z" style="fill:#e0e0e0"></path><rect x="221.14" y="251.79" width="25.72" height="4.72" transform="translate(1.17 -1.07) rotate(0.26)" style="fill:#22C55E"></rect><rect x="221.14" y="251.79" width="25.72" height="4.72" transform="translate(1.17 -1.07) rotate(0.26)" style="opacity:0.1"></rect><path d="M321.8,280.8a4.78,4.78,0,0,0,.6-.11,2.06,2.06,0,0,0,1.26-1.13,2.82,2.82,0,0,0,.18-1.27c0-.49,0-1,0-1.59,0-1.15,0-2.48,0-4v-6.35a2.15,2.15,0,0,0-.29-1.32,2,2,0,0,0-1.09-.84,6.11,6.11,0,0,0-1.51-.09l-14.39,0-83.35-.31a1.85,1.85,0,0,0-1.83,1.61c0,1,0,2,0,3,0,2,0,4,0,6,0,1,0,2,0,3a5.66,5.66,0,0,0,.06,1.39,1.83,1.83,0,0,0,.73,1,2,2,0,0,0,1.24.32h4.35l22.13.12,37.47.23,25.26.2,6.87.08,1.79,0c.4,0,.6,0,.6,0s-.2,0-.6,0l-1.79,0-6.87,0-25.26,0-37.47-.11-22.13-.09h-4.35a2.45,2.45,0,0,1-1.53-.41,2.4,2.4,0,0,1-.94-1.31,6.3,6.3,0,0,1-.08-1.54c0-1,0-2,0-3q0-3,0-6c0-1,0-2,0-3.05a2.36,2.36,0,0,1,2.34-2.07l83.35.46,14.39.11a6.19,6.19,0,0,1,1.6.11,2.21,2.21,0,0,1,1.23,1,2.41,2.41,0,0,1,.32,1.46c0,.47,0,.94,0,1.39,0,1.81,0,3.47,0,5s0,2.82,0,4c0,.57,0,1.1,0,1.59a2.74,2.74,0,0,1-.21,1.31,2.12,2.12,0,0,1-1.35,1.14A1.58,1.58,0,0,1,321.8,280.8Z" style="fill:#e0e0e0"></path><rect x="228.23" y="225.07" width="47.04" height="4.41" transform="translate(1.05 -1.16) rotate(0.26)" style="fill:#22C55E"></rect><rect x="228.23" y="225.07" width="47.04" height="4.41" transform="translate(1.05 -1.16) rotate(0.26)" style="fill:#fff;opacity:0.2"></rect><path d="M232.51,272.64a2.06,2.06,0,1,1-2-2.21A2.12,2.12,0,0,1,232.51,272.64Z" style="fill:#22C55E"></path><path d="M238.88,272.67a2.06,2.06,0,1,1-4.11,0,2.06,2.06,0,1,1,4.11,0Z" style="fill:#22C55E"></path><path d="M245.26,272.7a2.06,2.06,0,1,1-2-2.21A2.13,2.13,0,0,1,245.26,272.7Z" style="fill:#22C55E"></path><path d="M251.63,272.73a2.06,2.06,0,1,1-2-2.21A2.13,2.13,0,0,1,251.63,272.73Z" style="fill:#22C55E"></path><path d="M258,272.75a2.06,2.06,0,1,1-2-2.2A2.13,2.13,0,0,1,258,272.75Z" style="fill:#22C55E"></path><path d="M264.38,272.78a2.06,2.06,0,1,1-2.05-2.2A2.13,2.13,0,0,1,264.38,272.78Z" style="fill:#22C55E"></path><path d="M270.75,272.81a2.06,2.06,0,1,1-4.11,0,2.06,2.06,0,1,1,4.11,0Z" style="fill:#22C55E"></path><path d="M277.12,272.84a2.06,2.06,0,1,1-2.05-2.2A2.13,2.13,0,0,1,277.12,272.84Z" style="fill:#22C55E"></path><path d="M283.49,272.87a2.06,2.06,0,1,1-2-2.2A2.13,2.13,0,0,1,283.49,272.87Z" style="fill:#22C55E"></path><g style="opacity:0.2"><path d="M232.51,272.64a2.06,2.06,0,1,1-2-2.21A2.12,2.12,0,0,1,232.51,272.64Z" style="fill:#fff"></path><path d="M238.88,272.67a2.06,2.06,0,1,1-4.11,0,2.06,2.06,0,1,1,4.11,0Z" style="fill:#fff"></path><path d="M245.26,272.7a2.06,2.06,0,1,1-2-2.21A2.13,2.13,0,0,1,245.26,272.7Z" style="fill:#fff"></path><path d="M251.63,272.73a2.06,2.06,0,1,1-2-2.21A2.13,2.13,0,0,1,251.63,272.73Z" style="fill:#fff"></path><path d="M258,272.75a2.06,2.06,0,1,1-2-2.2A2.13,2.13,0,0,1,258,272.75Z" style="fill:#fff"></path><path d="M264.38,272.78a2.06,2.06,0,1,1-2.05-2.2A2.13,2.13,0,0,1,264.38,272.78Z" style="fill:#fff"></path><path d="M270.75,272.81a2.06,2.06,0,1,1-4.11,0,2.06,2.06,0,1,1,4.11,0Z" style="fill:#fff"></path><path d="M277.12,272.84a2.06,2.06,0,1,1-2.05-2.2A2.13,2.13,0,0,1,277.12,272.84Z" style="fill:#fff"></path><path d="M283.49,272.87a2.06,2.06,0,1,1-2-2.2A2.13,2.13,0,0,1,283.49,272.87Z" style="fill:#fff"></path></g><path d="M274.44,128.51a3.87,3.87,0,0,0,2.31-3.59,3.64,3.64,0,1,0-7.27,0,3.88,3.88,0,0,0,2.32,3.63c-5.6.84-5.35,6.92-5.35,6.92l13.24.06S280,129.34,274.44,128.51Z" style="fill:#22C55E"></path><path d="M274.44,128.51a3.87,3.87,0,0,0,2.31-3.59,3.64,3.64,0,1,0-7.27,0,3.88,3.88,0,0,0,2.32,3.63c-5.6.84-5.35,6.92-5.35,6.92l13.24.06S280,129.34,274.44,128.51Z" style="opacity:0.1"></path><rect x="248.74" y="139.37" width="47.19" height="5.64" transform="translate(0.66 -1.26) rotate(0.26)" style="fill:#22C55E"></rect><rect x="248.74" y="139.37" width="47.19" height="5.64" transform="translate(0.66 -1.26) rotate(0.26)" style="fill:#fff;opacity:0.2"></rect></g><g id="freepik--speech-bubble--inject-64"><path d="M122.47,168.68l-.47,0-1.36.1a15.43,15.43,0,0,0-2.19.29,13.53,13.53,0,0,0-1.39.27l-1.55.43a25.47,25.47,0,0,0-7.37,3.65,25.94,25.94,0,0,0-7.26,8.08,27.08,27.08,0,0,0-2.54,5.81,27.94,27.94,0,0,0-1.11,6.78,27.48,27.48,0,0,0,.06,3.62c0,.61.17,1.22.25,1.84a11.82,11.82,0,0,0,.35,1.85,26.39,26.39,0,0,0,15,18.33,23.76,23.76,0,0,0,8.59,1.93,23.19,23.19,0,0,0,9-1.29l.88-.33.12,0,.1.06,12.61,6.4-.37.32c-1.35-4.18-2.65-8.23-3.91-12.12l0-.15.11-.11a27,27,0,0,0,6.62-11,27.7,27.7,0,0,0,1-11.72,27.38,27.38,0,0,0-3.31-9.94,27,27,0,0,0-5.7-7,27.85,27.85,0,0,0-6.19-3.94,26.94,26.94,0,0,0-5.24-1.65l-2-.33-1.45-.11-.88-.06-.3,0a1.36,1.36,0,0,1,.3,0l.89,0,1.45.06,2,.29a26.5,26.5,0,0,1,5.31,1.59,27.79,27.79,0,0,1,6.3,3.93,27.07,27.07,0,0,1,5.82,7,27.45,27.45,0,0,1,3.41,10.07,28,28,0,0,1-.93,11.92,27.36,27.36,0,0,1-6.72,11.23l.06-.26c1.26,3.89,2.57,7.94,3.93,12.11l.19.61-.57-.29-12.61-6.39h.22l-.9.33a23.86,23.86,0,0,1-9.17,1.32,24.3,24.3,0,0,1-8.77-2A26.31,26.31,0,0,1,100.25,209a26.7,26.7,0,0,1-2.83-7.4,15.32,15.32,0,0,1-.35-1.89c-.08-.63-.21-1.25-.24-1.87a29.55,29.55,0,0,1,1.11-10.56,26.89,26.89,0,0,1,2.61-5.88,26.17,26.17,0,0,1,7.41-8.13,25.28,25.28,0,0,1,7.49-3.62l1.57-.4a13.89,13.89,0,0,1,1.4-.25,14.85,14.85,0,0,1,2.21-.24l1.37-.05A3.36,3.36,0,0,1,122.47,168.68Z" style="fill:#22C55E"></path><path d="M128.17,192h-1.85l-4-5.62v-3.69s-2.86-.18-2.52,4.65,0,3.6,0,3.6-6.07,0-6.57.55-.53,6.41-.6,9.68a3.54,3.54,0,0,0,2.51,3.56,2.48,2.48,0,0,0,.65.09c1.52,0,9.25-1.23,9.25-1.23h3.19Z" style="fill:#22C55E"></path><polygon points="133.46 191.01 132.32 203.65 129.16 203.65 129.16 191.27 133.46 191.01" style="fill:#22C55E"></polygon></g></svg>